<svg width="143" height="36" fill="none" xmlns="http://www.w3.org/2000/svg">
    <g clip-path="url(#a)" fill="#fff"><path d="M4.387 8.179H6.3V3.793H0v11.016l4.387 3.19v-9.82Z"/>
        <path d="M15.228 8.179V3.794H8.215v4.385h1.313v1.915H6.303v11.63l3.225 2.333v2.337L4.387 22.67v-2.338L0 17.143v7.806l11.722 8.519 11.721-8.52v-7.802l-4.385 3.19v2.338l-5.143 3.72v-2.337l3.224-2.333v-11.63h-3.224V8.179h1.313Zm.499 6.825-2.232 1.855.689 2.842-2.466-1.552-2.462 1.553.69-2.846L7.717 15l2.92-.196 1.085-2.73 1.087 2.741 2.92.195-.001-.007Z"/>
        <path d="m19.056 17.995 4.386-3.19V3.792H17.14v4.386h1.915v9.817Z"/>
        <path fill-rule="evenodd" clip-rule="evenodd" d="m48.457 8.183-2.607 8.494h-.267V8.183h-3.409V24.95h3.407l2.695-8.524h.264v8.523h3.382V8.183h-3.465ZM61.426 10.308a2.934 2.934 0 0 0-1.807-1.803c-.807-.263-1.483-.322-2.663-.322h-3.602v16.766h3.605v-4.764c1.18 0 1.855-.06 2.663-.322a2.934 2.934 0 0 0 1.804-1.804c.262-.805.322-1.484.322-2.663V12.97c0-1.18-.06-1.86-.322-2.663Zm-3.104 6.617a.618.618 0 0 1-.376.376c-.18.052-.368.075-.555.067h-.432V11h.435c.187-.007.375.016.555.067a.62.62 0 0 1 .376.376c.051.181.074.369.067.557v4.37c.006.188-.018.376-.07.556ZM36.297 8.183l-1.891 9.358h-.188l-1.891-9.358h-4.54V24.95h3.41v-9.51h.29l2.059 9.51h1.531l2.06-9.51h.289v9.51h3.41V8.183h-4.54ZM101.781 8.183h-5.705L93.58 24.949h3.534l.396-2.968h2.838l.396 2.968h3.536l-2.499-16.766Zm-3.88 10.905.855-7.363h.346l.856 7.363H97.9ZM122.11 8.183h-6.003l-2.205 16.768h3.68l1.353-12.696h.346l1.353 12.696h3.681L122.11 8.183ZM75.173 8.126h-3.88L69.319 14.8h-.354V8.126h-3.604v16.826h3.604v-7.084h.354l1.974 7.084h3.88l-2.73-8.65v-.028l2.73-8.148ZM139.535 8.183l-2.525 8.494h-.266V8.183h-3.327V24.95h3.406l2.613-8.524h.264v8.523h3.3V8.183h-3.465Z"/>
        <path d="M141.111 5.05h-5.805v2.013h5.805V5.05Z"/>
        <path fill-rule="evenodd" clip-rule="evenodd" d="M132.254 11.295V8.183h-7.224V24.95h7.224v-3.113h-3.619v-4.095h3.136v-2.874h-3.136v-3.574h3.619ZM83.94 10.381a3.35 3.35 0 0 0-1.872-2.011 5.798 5.798 0 0 0-4.488 0 3.355 3.355 0 0 0-1.873 2.011c-.371 1.045-.371 1.929-.371 4.741v2.832c0 2.809 0 3.697.37 4.74a3.353 3.353 0 0 0 1.874 2.012 5.799 5.799 0 0 0 4.488 0 3.35 3.35 0 0 0 1.873-2.011c.37-1.044.37-1.93.37-4.741v-2.832c0-2.808 0-3.696-.37-4.741Zm-3.234 10.18c0 .635-.026.837-.106 1.016a.709.709 0 0 1-.36.378 1.005 1.005 0 0 1-.833 0 .708.708 0 0 1-.359-.378c-.08-.18-.107-.381-.107-1.017v-8.044c0-.636.027-.838.107-1.018a.704.704 0 0 1 .36-.377.996.996 0 0 1 .832 0c.164.075.292.21.36.377.08.18.106.382.106 1.018v8.044ZM93.661 10.308a2.934 2.934 0 0 0-1.803-1.803c-.806-.263-1.484-.322-2.663-.322H85.59v16.766h3.605V20.02c1.18 0 1.854-.06 2.663-.322a2.932 2.932 0 0 0 1.803-1.804c.263-.805.323-1.483.323-2.663v-2.26c0-1.18-.06-1.86-.323-2.663Zm-3.104 6.454a.614.614 0 0 1-.376.376c-.18.051-.367.074-.555.066h-.431V11h.431c.188-.007.375.016.555.067a.618.618 0 0 1 .376.376c.052.181.075.369.068.557v4.205a1.8 1.8 0 0 1-.07.557l.002.001ZM113.207 15.899a2.933 2.933 0 0 0-1.805-1.804c-.807-.262-1.484-.322-2.663-.322v-2.574h4.072V8.183h-7.675v16.766h3.605c1.179 0 1.854-.06 2.662-.323a2.941 2.941 0 0 0 1.804-1.803c.262-.806.322-1.484.322-2.664v-1.598c0-1.18-.06-1.857-.322-2.662Zm-3.037 5.235c.007.188-.015.376-.067.557a.622.622 0 0 1-.376.376 1.768 1.768 0 0 1-.555.067h-.431V16.59h.431c.187-.007.374.016.555.067a.62.62 0 0 1 .376.376c.052.181.074.369.067.557v3.545Z"/>
    </g>
    <defs>
        <clipPath id="a">
            <path fill="#fff" d="M0 0h143v36H0z"/>
        </clipPath>
    </defs>
</svg>